<svg width="48" height="48" viewBox="0 0 48 48" fill="none" xmlns="http://www.w3.org/2000/svg" xmlns:xlink="http://www.w3.org/1999/xlink">
<path d="M19.14,37.64C18.76,37.64 18.38,37.5 18.08,37.2L5.94,25.06C5.36,24.48 5.36,23.52 5.94,22.94L18.08,10.8C18.66,10.22 19.62,10.22 20.2,10.8C20.78,11.38 20.78,12.34 20.2,12.92L9.12,24L20.2,35.08C20.78,35.66 20.78,36.62 20.2,37.2C19.92,37.5 19.52,37.64 19.14,37.64Z" fill="#FFFFFF"/>
<path d="M41,25.5L7.34,25.5C6.52,25.5 5.84,24.82 5.84,24C5.84,23.18 6.52,22.5 7.34,22.5L41,22.5C41.82,22.5 42.5,23.18 42.5,24C42.5,24.82 41.82,25.5 41,25.5Z" fill="#FFFFFF"/>
</svg>
