<svg width="48" height="48" viewBox="0 0 48 48" fill="none" xmlns="http://www.w3.org/2000/svg" xmlns:xlink="http://www.w3.org/1999/xlink">
<path d="M26.84,6.5L25.779,7.561L25.847,7.628L25.922,7.686L26.84,6.5ZM9.84,9.5L11.265,9.968L11.282,9.917L11.295,9.864L9.84,9.5ZM5.04,24.1L6.453,24.604L6.459,24.587L6.465,24.568L5.04,24.1ZM18.84,31.7L20.322,31.932L20.325,31.912L18.84,31.7ZM17.84,38.1L19.304,38.425L19.315,38.379L19.322,38.332L17.84,38.1ZM20.44,42.5L20.967,41.096L20.941,41.086L20.914,41.077L20.44,42.5ZM24.84,41.1L23.595,40.263L23.592,40.268L24.84,41.1ZM33.958,10.114L27.758,5.314L25.922,7.686L32.122,12.486L33.958,10.114ZM27.901,5.439C27.234,4.773 26.294,4.384 25.502,4.158C24.673,3.921 23.785,3.8 23.04,3.8L23.04,6.8C23.495,6.8 24.106,6.879 24.678,7.042C25.286,7.216 25.646,7.427 25.779,7.561L27.901,5.439ZM23.04,3.8L15.44,3.8L15.44,6.8L23.04,6.8L23.04,3.8ZM15.44,3.8C13.88,3.8 12.326,4.377 11.079,5.289C9.831,6.203 8.786,7.53 8.385,9.136L11.295,9.864C11.494,9.07 12.049,8.297 12.851,7.711C13.654,7.123 14.599,6.8 15.44,6.8L15.44,3.8ZM8.415,9.032L3.615,23.632L6.465,24.568L11.265,9.968L8.415,9.032ZM3.627,23.595C2.979,25.41 3.203,27.243 4.232,28.64C5.255,30.027 6.934,30.8 8.84,30.8L8.84,27.8C7.746,27.8 7.025,27.373 6.648,26.86C6.277,26.357 6.101,25.59 6.453,24.604L3.627,23.595ZM8.84,30.8L16.84,30.8L16.84,27.8L8.84,27.8L8.84,30.8ZM16.84,30.8C17.02,30.8 17.157,30.873 17.24,30.967C17.313,31.05 17.395,31.205 17.355,31.488L20.325,31.912C20.658,29.583 18.927,27.8 16.84,27.8L16.84,30.8ZM17.358,31.468L16.358,37.868L19.322,38.332L20.322,31.932L17.358,31.468ZM16.376,37.775C15.797,40.379 17.49,43.098 19.966,43.923L20.914,41.077C19.79,40.702 19.083,39.421 19.304,38.425L16.376,37.775ZM19.913,43.904C21.107,44.352 22.374,44.256 23.428,43.894C24.471,43.535 25.47,42.859 26.088,41.932L23.592,40.268C23.41,40.541 23.009,40.865 22.452,41.056C21.906,41.244 21.373,41.248 20.967,41.096L19.913,43.904ZM26.085,41.937L34.285,29.737L31.795,28.063L23.595,40.263L26.085,41.937Z" fill="#FF3040"/>
<path d="M41.74,11.3L41.74,30.9L44.74,30.9L44.74,11.3L41.74,11.3ZM41.74,30.9C41.74,32.131 41.47,32.566 41.273,32.748C41.046,32.957 40.525,33.2 39.24,33.2L39.24,36.2C40.755,36.2 42.234,35.943 43.307,34.952C44.41,33.934 44.74,32.469 44.74,30.9L41.74,30.9ZM39.24,33.2L37.24,33.2L37.24,36.2L39.24,36.2L39.24,33.2ZM37.24,33.2C35.955,33.2 35.434,32.957 35.207,32.748C35.01,32.566 34.74,32.131 34.74,30.9L31.74,30.9C31.74,32.469 32.07,33.934 33.173,34.952C34.246,35.943 35.725,36.2 37.24,36.2L37.24,33.2ZM34.74,30.9L34.74,11.3L31.74,11.3L31.74,30.9L34.74,30.9ZM34.74,11.3C34.74,10.069 35.01,9.634 35.207,9.452C35.434,9.243 35.955,9 37.24,9L37.24,6C35.725,6 34.246,6.257 33.173,7.248C32.07,8.266 31.74,9.731 31.74,11.3L34.74,11.3ZM37.24,9L39.24,9L39.24,6L37.24,6L37.24,9ZM39.24,9C40.525,9 41.046,9.243 41.273,9.452C41.47,9.634 41.74,10.069 41.74,11.3L44.74,11.3C44.74,9.731 44.41,8.266 43.307,7.248C42.234,6.257 40.755,6 39.24,6L39.24,9Z" fill="#FF3040"/>
</svg>
