<svg width="28" height="38" viewBox="0 0 28 38" fill="none" xmlns="http://www.w3.org/2000/svg" xmlns:xlink="http://www.w3.org/1999/xlink">
<path d="M13.76,22.799C16.948,22.799 19.501,20.226 19.501,17.039L19.52,5.519C19.52,2.332 16.948,-0.241 13.76,-0.241C10.573,-0.241 8,2.332 8,5.519L8,17.039C8,20.226 10.573,22.799 13.76,22.799ZM23.936,17.039C23.936,22.799 19.06,26.831 13.76,26.831C8.461,26.831 3.584,22.799 3.584,17.039L0.32,17.039C0.32,23.586 5.543,29 11.84,29.941L11.84,36.239L15.68,36.239L15.68,29.941C21.978,29.02 27.2,23.605 27.2,17.039L23.936,17.039Z" fill="#454647"/>
</svg>
