<svg width="36" height="36" viewBox="0 0 36 36" fill="none" xmlns="http://www.w3.org/2000/svg" xmlns:xlink="http://www.w3.org/1999/xlink">
<path d="M18,29.679C24.362,29.679 29.52,24.521 29.52,18.159C29.52,11.796 24.362,6.639 18,6.639C11.638,6.639 6.48,11.796 6.48,18.159C6.48,24.521 11.638,29.679 18,29.679Z" fill="#666666"/>
<path d="M35.28,18.159C35.28,27.702 27.543,35.439 18,35.439C8.456,35.439 0.72,27.702 0.72,18.159C0.72,8.615 8.456,0.879 18,0.879C27.543,0.879 35.28,8.615 35.28,18.159ZM32.4,18.159C32.4,26.112 25.953,32.559 18,32.559C10.047,32.559 3.6,26.112 3.6,18.159C3.6,10.206 10.047,3.759 18,3.759C25.953,3.759 32.4,10.206 32.4,18.159Z" clip-rule="evenodd" fill-rule="evenodd" fill="#666666"/>
</svg>
