<svg width="40" height="40" viewBox="0 0 40 40" fill="none" xmlns="http://www.w3.org/2000/svg" xmlns:xlink="http://www.w3.org/1999/xlink">
<path d="M19.181,0.639C8.582,0.639 0,9.24 0,19.839C0,30.437 8.582,39.039 19.181,39.039C29.798,39.039 38.4,30.437 38.4,19.839C38.4,9.24 29.798,0.639 19.181,0.639ZM32.486,12.159L26.822,12.159C26.208,9.759 25.325,7.455 24.173,5.324C27.706,6.533 30.643,8.991 32.486,12.159ZM19.2,4.556C20.794,6.86 22.042,9.413 22.867,12.159L15.533,12.159C16.358,9.413 17.606,6.86 19.2,4.556ZM4.339,23.679C4.032,22.45 3.84,21.164 3.84,19.839C3.84,18.514 4.032,17.228 4.339,15.999L10.829,15.999C10.675,17.266 10.56,18.533 10.56,19.839C10.56,21.144 10.675,22.412 10.829,23.679L4.339,23.679ZM5.914,27.519L11.578,27.519C12.192,29.919 13.075,32.223 14.227,34.354C10.694,33.144 7.757,30.706 5.914,27.519L5.914,27.519ZM11.578,12.159L5.914,12.159C7.757,8.972 10.694,6.533 14.227,5.324C13.075,7.455 12.192,9.759 11.578,12.159L11.578,12.159ZM19.2,35.122C17.606,32.818 16.358,30.264 15.533,27.519L22.867,27.519C22.042,30.264 20.794,32.818 19.2,35.122ZM23.693,23.679L14.707,23.679C14.534,22.412 14.4,21.144 14.4,19.839C14.4,18.533 14.534,17.247 14.707,15.999L23.693,15.999C23.866,17.247 24,18.533 24,19.839C24,21.144 23.866,22.412 23.693,23.679ZM24.173,34.354C25.325,32.223 26.208,29.919 26.822,27.519L32.486,27.519C30.643,30.687 27.706,33.144 24.173,34.354L24.173,34.354ZM27.571,23.679C27.725,22.412 27.84,21.144 27.84,19.839C27.84,18.533 27.725,17.266 27.571,15.999L34.061,15.999C34.368,17.228 34.56,18.514 34.56,19.839C34.56,21.164 34.368,22.45 34.061,23.679L27.571,23.679Z" fill="#4C4C4C"/>
</svg>
