<svg width="46" height="36" viewBox="0 0 46 36" fill="none" xmlns="http://www.w3.org/2000/svg" xmlns:xlink="http://www.w3.org/1999/xlink">
<path d="M41.44,0.399L12.64,0.399C11.315,0.399 10.278,1.071 9.587,2.088L-0.8,17.679L9.587,33.25C10.278,34.268 11.315,34.959 12.64,34.959L41.44,34.959C43.552,34.959 45.28,33.231 45.28,31.119L45.28,4.239C45.28,2.127 43.552,0.399 41.44,0.399ZM41.44,31.119L12.774,31.119L3.808,17.679L12.755,4.239L41.44,4.239L41.44,31.119ZM19.187,27.279L26.08,20.386L32.973,27.279L35.68,24.572L28.787,17.679L35.68,10.786L32.973,8.079L26.08,14.972L19.187,8.079L16.48,10.786L23.373,17.679L16.48,24.572L19.187,27.279Z" fill="#3D3D3F"/>
</svg>
