<svg width="32" height="40" viewBox="0 0 32 40" fill="none" xmlns="http://www.w3.org/2000/svg" xmlns:xlink="http://www.w3.org/1999/xlink">
<path d="M6.5,16C6.5,16.828 7.172,17.5 8,17.5C8.828,17.5 9.5,16.828 9.5,16L6.5,16ZM16,2L16,0.5L16,2ZM24,10L25.5,10L24,10ZM22.5,16C22.5,16.828 23.172,17.5 24,17.5C24.828,17.5 25.5,16.828 25.5,16L22.5,16ZM9.5,16L9.5,10L6.5,10L6.5,16L9.5,16ZM9.5,10C9.5,8.276 10.185,6.623 11.404,5.404L9.282,3.282C7.501,5.064 6.5,7.48 6.5,10L9.5,10ZM11.404,5.404C12.623,4.185 14.276,3.5 16,3.5L16,0.5C13.48,0.5 11.064,1.501 9.282,3.282L11.404,5.404ZM16,3.5C17.724,3.5 19.377,4.185 20.596,5.404L22.718,3.282C20.936,1.501 18.52,0.5 16,0.5L16,3.5ZM20.596,5.404C21.815,6.623 22.5,8.276 22.5,10L25.5,10C25.5,7.48 24.499,5.064 22.718,3.282L20.596,5.404ZM22.5,10L22.5,16L25.5,16L25.5,10L22.5,10Z" fill="#000000"/>
<path d="M2,16L2,14.5C1.172,14.5 0.5,15.172 0.5,16L2,16ZM30,16L31.5,16C31.5,15.172 30.828,14.5 30,14.5L30,16ZM2,34L0.5,34L2,34ZM2,17.5L30,17.5L30,14.5L2,14.5L2,17.5ZM28.5,16L28.5,34L31.5,34L31.5,16L28.5,16ZM28.5,34C28.5,34.663 28.237,35.299 27.768,35.768L29.889,37.889C30.921,36.858 31.5,35.459 31.5,34L28.5,34ZM27.768,35.768C27.299,36.237 26.663,36.5 26,36.5L26,39.5C27.459,39.5 28.858,38.921 29.889,37.889L27.768,35.768ZM26,36.5L6,36.5L6,39.5L26,39.5L26,36.5ZM6,36.5C5.337,36.5 4.701,36.237 4.232,35.768L2.111,37.889C3.142,38.921 4.541,39.5 6,39.5L6,36.5ZM4.232,35.768C3.763,35.299 3.5,34.663 3.5,34L0.5,34C0.5,35.459 1.079,36.858 2.111,37.889L4.232,35.768ZM3.5,34L3.5,16L0.5,16L0.5,34L3.5,34Z" fill="#000000"/>
<path d="M16,28L16,25.75C14.757,25.75 13.75,26.757 13.75,28L16,28ZM16.02,28L18.27,28C18.27,26.757 17.263,25.75 16.02,25.75L16.02,28ZM16.02,28.02L16.02,30.27C17.263,30.27 18.27,29.263 18.27,28.02L16.02,28.02ZM16,28.02L13.75,28.02C13.75,29.263 14.757,30.27 16,30.27L16,28.02ZM16,30.25L16.02,30.25L16.02,25.75L16,25.75L16,30.25ZM13.77,28L13.77,28.02L18.27,28.02L18.27,28L13.77,28ZM16.02,25.77L16,25.77L16,30.27L16.02,30.27L16.02,25.77ZM18.25,28.02L18.25,28L13.75,28L13.75,28.02L18.25,28.02Z" fill="#000000"/>
</svg>
