<svg width="48" height="48" viewBox="0 0 48 48" fill="none" xmlns="http://www.w3.org/2000/svg" xmlns:xlink="http://www.w3.org/1999/xlink">
<path d="M16.306,14.991C16.235,15.817 16.846,16.543 17.671,16.614C18.497,16.686 19.223,16.074 19.295,15.249L16.306,14.991ZM19.314,32.941C19.237,32.116 18.506,31.51 17.681,31.586C16.856,31.663 16.25,32.394 16.327,33.219L19.314,32.941ZM19.295,15.249C19.585,11.873 20.569,9.798 22.15,8.515C23.772,7.199 26.307,6.48 30.22,6.48L30.22,3.48C26.033,3.48 22.668,4.232 20.26,6.185C17.811,8.173 16.635,11.167 16.306,14.991L19.295,15.249ZM30.22,6.48L30.48,6.48L30.48,3.48L30.22,3.48L30.22,6.48ZM30.48,6.48C34.802,6.48 37.438,7.354 39.032,8.948C40.626,10.542 41.5,13.178 41.5,17.5L44.5,17.5C44.5,12.882 43.584,9.258 41.153,6.827C38.722,4.396 35.098,3.48 30.48,3.48L30.48,6.48ZM41.5,17.5L41.5,30.54L44.5,30.54L44.5,17.5L41.5,17.5ZM41.5,30.54C41.5,34.862 40.626,37.498 39.032,39.092C37.438,40.686 34.802,41.56 30.48,41.56L30.48,44.56C35.098,44.56 38.722,43.644 41.153,41.213C43.584,38.782 44.5,35.158 44.5,30.54L41.5,30.54ZM30.48,41.56L30.22,41.56L30.22,44.56L30.48,44.56L30.48,41.56ZM30.22,41.56C26.337,41.56 23.812,40.851 22.19,39.554C20.611,38.291 19.622,36.252 19.314,32.941L16.327,33.219C16.678,36.988 17.869,39.939 20.316,41.896C22.718,43.819 26.063,44.56 30.22,44.56L30.22,41.56Z" fill="#FF3040"/>
<line x1="7.24" y1="22.5" x2="30" y2="22.5" stroke="#FF3040" stroke-width="1.5" stroke-miterlimit="3.999327" stroke-linecap="round" stroke-linejoin="round"/>
<path d="M12.761,18.361C13.346,17.775 13.346,16.825 12.761,16.239C12.175,15.654 11.225,15.654 10.639,16.239L12.761,18.361ZM5,24L3.939,22.939C3.354,23.525 3.354,24.475 3.939,25.061L5,24ZM10.639,31.761C11.225,32.346 12.175,32.346 12.761,31.761C13.346,31.175 13.346,30.225 12.761,29.639L10.639,31.761ZM10.639,16.239L3.939,22.939L6.061,25.061L12.761,18.361L10.639,16.239ZM3.939,25.061L10.639,31.761L12.761,29.639L6.061,22.939L3.939,25.061Z" fill="#FF3040"/>
</svg>
