<svg width="34" height="34" viewBox="0 0 34 34" fill="none" xmlns="http://www.w3.org/2000/svg" xmlns:xlink="http://www.w3.org/1999/xlink">
<path d="M26.96,15.306C26.96,21.742 21.742,26.96 15.306,26.96L15.306,29.96C23.399,29.96 29.96,23.399 29.96,15.306L26.96,15.306ZM15.306,26.96C8.87,26.96 3.652,21.742 3.652,15.306L0.652,15.306C0.652,23.399 7.213,29.96 15.306,29.96L15.306,26.96ZM3.652,15.306C3.652,8.87 8.87,3.652 15.306,3.652L15.306,0.652C7.213,0.652 0.652,7.213 0.652,15.306L3.652,15.306ZM15.306,3.652C21.742,3.652 26.96,8.87 26.96,15.306L29.96,15.306C29.96,7.213 23.399,0.652 15.306,0.652L15.306,3.652Z" fill="#000000"/>
<path d="M28.783,30.904C29.369,31.49 30.318,31.49 30.904,30.904C31.49,30.318 31.49,29.369 30.904,28.783L28.783,30.904ZM28.135,26.014C27.549,25.428 26.599,25.428 26.014,26.014C25.428,26.599 25.428,27.549 26.014,28.135L28.135,26.014ZM30.904,28.783L28.135,26.014L26.014,28.135L28.783,30.904L30.904,28.783Z" fill="#000000"/>
</svg>
