<svg width="48" height="48" viewBox="0 0 48 48" fill="none" xmlns="http://www.w3.org/2000/svg" xmlns:xlink="http://www.w3.org/1999/xlink">
<path d="M42,13.46C41.96,13.46 41.9,13.46 41.84,13.46C31.26,12.4 20.7,12 10.24,13.06L6.16,13.46C5.32,13.54 4.58,12.94 4.5,12.1C4.42,11.26 5.02,10.54 5.84,10.46L9.92,10.06C20.56,8.98 31.34,9.4 42.14,10.46C42.96,10.54 43.56,11.28 43.48,12.1C43.42,12.88 42.76,13.46 42,13.46Z" fill="#000000"/>
<path d="M17,11.44C16.92,11.44 16.84,11.44 16.74,11.42C15.94,11.28 15.38,10.5 15.52,9.7L15.96,7.08C16.28,5.16 16.72,2.5 21.38,2.5L26.62,2.5C31.3,2.5 31.74,5.26 32.04,7.1L32.48,9.7C32.62,10.52 32.06,11.3 31.26,11.42C30.44,11.56 29.66,11 29.54,10.2L29.1,7.6C28.82,5.86 28.76,5.52 26.64,5.52L21.4,5.52C19.28,5.52 19.24,5.8 18.94,7.58L18.48,10.18C18.36,10.92 17.72,11.44 17,11.44Z" fill="#000000"/>
<path d="M30.42,45.5L17.58,45.5C10.6,45.5 10.32,41.64 10.1,38.52L8.8,18.38C8.74,17.56 9.38,16.84 10.2,16.78C11.04,16.74 11.74,17.36 11.8,18.18L13.1,38.32C13.32,41.36 13.4,42.5 17.58,42.5L30.42,42.5C34.62,42.5 34.7,41.36 34.9,38.32L36.2,18.18C36.26,17.36 36.98,16.74 37.8,16.78C38.62,16.84 39.26,17.54 39.2,18.38L37.9,38.52C37.68,41.64 37.4,45.5 30.42,45.5Z" fill="#000000"/>
<path d="M27.32,34.5L20.66,34.5C19.84,34.5 19.16,33.82 19.16,33C19.16,32.18 19.84,31.5 20.66,31.5L27.32,31.5C28.14,31.5 28.82,32.18 28.82,33C28.82,33.82 28.14,34.5 27.32,34.5Z" fill="#000000"/>
<path d="M29,26.5L19,26.5C18.18,26.5 17.5,25.82 17.5,25C17.5,24.18 18.18,23.5 19,23.5L29,23.5C29.82,23.5 30.5,24.18 30.5,25C30.5,25.82 29.82,26.5 29,26.5Z" fill="#000000"/>
</svg>
