<svg width="48" height="48" viewBox="0 0 48 48" fill="none" xmlns="http://www.w3.org/2000/svg" xmlns:xlink="http://www.w3.org/1999/xlink">
<path d="M32.5,14C32.5,18.694 28.694,22.5 24,22.5L24,25.5C30.351,25.5 35.5,20.351 35.5,14L32.5,14ZM24,22.5C19.306,22.5 15.5,18.694 15.5,14L12.5,14C12.5,20.351 17.649,25.5 24,25.5L24,22.5ZM15.5,14C15.5,9.306 19.306,5.5 24,5.5L24,2.5C17.649,2.5 12.5,7.649 12.5,14L15.5,14ZM24,5.5C28.694,5.5 32.5,9.306 32.5,14L35.5,14C35.5,7.649 30.351,2.5 24,2.5L24,5.5Z" fill="#000000"/>
<path d="M5.32,44C5.32,44.828 5.992,45.5 6.82,45.5C7.648,45.5 8.32,44.828 8.32,44L5.32,44ZM29.121,32.186C29.92,32.406 30.746,31.937 30.966,31.139C31.186,30.34 30.718,29.514 29.919,29.294L29.121,32.186ZM8.32,44C8.32,37.362 15.046,31.5 24,31.5L24,28.5C13.994,28.5 5.32,35.158 5.32,44L8.32,44ZM24,31.5C25.785,31.5 27.511,31.742 29.121,32.186L29.919,29.294C28.049,28.778 26.055,28.5 24,28.5L24,31.5Z" fill="#000000"/>
<path d="M43.76,37.86L42.311,37.474C42.306,37.492 42.301,37.512 42.297,37.531L43.76,37.86ZM42.84,40.12L41.564,39.332L41.551,39.353L42.84,40.12ZM30.68,41.94L31.692,40.833C31.682,40.824 31.672,40.815 31.662,40.806L30.68,41.94ZM29.16,40.12L30.453,39.359C30.448,39.35 30.442,39.342 30.437,39.333L29.16,40.12ZM30.26,30.42L29.185,29.374L29.185,29.374L30.26,30.42ZM41.94,30.66L40.813,31.65L40.826,31.664L41.94,30.66ZM42.5,36C42.5,36.514 42.436,37.003 42.311,37.474L45.209,38.246C45.404,37.517 45.5,36.766 45.5,36L42.5,36ZM42.297,37.531C42.153,38.168 41.896,38.793 41.564,39.332L44.116,40.908C44.624,40.087 45.007,39.152 45.223,38.189L42.297,37.531ZM41.551,39.353C40.431,41.235 38.372,42.5 36,42.5L36,45.5C39.468,45.5 42.489,43.645 44.129,40.887L41.551,39.353ZM36,42.5C34.328,42.5 32.826,41.869 31.692,40.833L29.668,43.047C31.334,44.571 33.552,45.5 36,45.5L36,42.5ZM31.662,40.806C31.182,40.39 30.768,39.895 30.453,39.359L27.867,40.881C28.352,41.705 28.978,42.45 29.698,43.073L31.662,40.806ZM30.437,39.333C29.841,38.367 29.5,37.219 29.5,36L26.5,36C26.5,37.781 26.999,39.473 27.883,40.907L30.437,39.333ZM29.5,36C29.5,34.243 30.199,32.635 31.336,31.466L29.185,29.374C27.521,31.085 26.5,33.437 26.5,36L29.5,36ZM31.335,31.466C32.522,30.247 34.178,29.5 36,29.5L36,26.5C33.342,26.5 30.918,27.593 29.185,29.374L31.335,31.466ZM36,29.5C37.923,29.5 39.654,30.33 40.813,31.65L43.067,29.67C41.346,27.71 38.797,26.5 36,26.5L36,29.5ZM40.826,31.664C41.869,32.822 42.5,34.348 42.5,36L45.5,36C45.5,33.572 44.571,31.338 43.054,29.656L40.826,31.664Z" fill="#000000"/>
<line x1="33.02" y1="34.46" x2="38.98" y2="34.46" stroke="#000000" stroke-width="1.5" stroke-miterlimit="10" stroke-linecap="round" stroke-linejoin="round"/>
<line x1="34.5" y1="33.04" x2="34.5" y2="39.02" stroke="#000000" stroke-width="1.5" stroke-miterlimit="10" stroke-linecap="round" stroke-linejoin="round"/>
</svg>
