<svg width="48" height="48" viewBox="0 0 48 48" fill="none" xmlns="http://www.w3.org/2000/svg" xmlns:xlink="http://www.w3.org/1999/xlink">
<path d="M35.996,14.32L35.75,15.8C35.849,15.816 35.95,15.823 36.051,15.819L35.996,14.32ZM35.616,14.32L35.562,15.819C35.663,15.823 35.763,15.816 35.863,15.8L35.616,14.32ZM40.976,9.16L42.476,9.171L42.476,9.16L40.976,9.16ZM36.243,12.84C35.96,12.793 35.653,12.793 35.37,12.84L35.863,15.8C35.833,15.805 35.815,15.805 35.806,15.805C35.797,15.805 35.779,15.805 35.75,15.8L36.243,12.84ZM35.671,12.821C33.717,12.75 32.156,11.152 32.156,9.16L29.156,9.16C29.156,12.768 31.996,15.69 35.562,15.819L35.671,12.821ZM32.156,9.16C32.156,7.128 33.785,5.5 35.816,5.5L35.816,2.5C32.128,2.5 29.156,5.472 29.156,9.16L32.156,9.16ZM35.816,5.5C37.844,5.5 39.476,7.145 39.476,9.16L42.476,9.16C42.476,5.495 39.508,2.5 35.816,2.5L35.816,5.5ZM39.476,9.149C39.462,11.151 37.894,12.75 35.942,12.821L36.051,15.819C39.618,15.69 42.451,12.769 42.476,9.171L39.476,9.149Z" fill="#000000"/>
<path d="M39.526,26.577C38.74,26.839 38.315,27.688 38.577,28.474C38.839,29.26 39.688,29.685 40.474,29.423L39.526,26.577ZM41.815,20.6L42.647,19.352L42.644,19.35L41.815,20.6ZM33.616,17.703C32.8,17.846 32.255,18.623 32.398,19.439C32.54,20.255 33.318,20.801 34.134,20.658L33.616,17.703ZM40.474,29.423C42.516,28.742 43.986,26.931 44.531,25.047C45.087,23.125 44.754,20.757 42.647,19.352L40.983,21.848C41.696,22.324 41.955,23.155 41.649,24.213C41.332,25.309 40.484,26.258 39.526,26.577L40.474,29.423ZM42.644,19.35C40.124,17.678 36.657,17.17 33.616,17.703L34.134,20.658C36.573,20.23 39.226,20.683 40.986,21.85L42.644,19.35Z" fill="#000000"/>
<path d="M11.933,14.32L11.879,15.819C11.98,15.823 12.08,15.816 12.18,15.8L11.933,14.32ZM12.313,14.32L12.067,15.8C12.166,15.816 12.267,15.823 12.367,15.819L12.313,14.32ZM6.953,9.16L5.453,9.16L5.453,9.171L6.953,9.16ZM12.18,15.8C12.15,15.805 12.132,15.805 12.123,15.805C12.114,15.805 12.096,15.805 12.067,15.8L12.56,12.84C12.276,12.793 11.97,12.793 11.687,12.84L12.18,15.8ZM12.367,15.819C15.933,15.69 18.773,12.768 18.773,9.16L15.773,9.16C15.773,11.152 14.213,12.75 12.259,12.821L12.367,15.819ZM18.773,9.16C18.773,5.472 15.802,2.5 12.113,2.5L12.113,5.5C14.145,5.5 15.773,7.128 15.773,9.16L18.773,9.16ZM12.113,2.5C8.421,2.5 5.453,5.495 5.453,9.16L8.453,9.16C8.453,7.145 10.085,5.5 12.113,5.5L12.113,2.5ZM5.453,9.171C5.479,12.769 8.311,15.69 11.879,15.819L11.987,12.821C10.035,12.75 8.467,11.151 8.453,9.149L5.453,9.171Z" fill="#000000"/>
<path d="M14.243,30.36C15.06,30.222 15.611,29.449 15.474,28.632C15.337,27.815 14.564,27.264 13.747,27.401L14.243,30.36ZM6.115,27.44L6.95,26.194L6.947,26.192L6.115,27.44ZM6.115,20.6L5.286,19.35L5.283,19.352L6.115,20.6ZM13.796,20.658C14.612,20.801 15.39,20.255 15.532,19.439C15.675,18.623 15.13,17.846 14.314,17.703L13.796,20.658ZM13.747,27.401C11.301,27.812 8.688,27.358 6.95,26.194L5.28,28.687C7.782,30.362 11.209,30.869 14.243,30.36L13.747,27.401ZM6.947,26.192C5.85,25.461 5.5,24.645 5.5,24.02C5.5,23.396 5.85,22.58 6.947,21.848L5.283,19.352C3.56,20.501 2.5,22.165 2.5,24.02C2.5,25.876 3.56,27.54 5.283,28.688L6.947,26.192ZM6.944,21.85C8.704,20.683 11.357,20.23 13.796,20.658L14.314,17.703C11.273,17.17 7.806,17.678 5.286,19.35L6.944,21.85Z" fill="#000000"/>
<path d="M23.996,29.261L23.75,30.741C23.845,30.757 23.943,30.764 24.04,30.761L23.996,29.261ZM23.616,29.261L23.562,30.76C23.663,30.764 23.763,30.758 23.863,30.741L23.616,29.261ZM28.976,24.101L30.476,24.112L30.476,24.101L28.976,24.101ZM24.243,27.782C23.96,27.735 23.653,27.735 23.37,27.782L23.863,30.741C23.833,30.746 23.815,30.746 23.806,30.746C23.797,30.746 23.779,30.746 23.75,30.741L24.243,27.782ZM23.671,27.762C21.717,27.692 20.156,26.093 20.156,24.101L17.156,24.101C17.156,27.709 19.996,30.631 23.562,30.76L23.671,27.762ZM20.156,24.101C20.156,22.07 21.785,20.441 23.816,20.441L23.816,17.441C20.128,17.441 17.156,20.413 17.156,24.101L20.156,24.101ZM23.816,20.441C25.844,20.441 27.476,22.086 27.476,24.101L30.476,24.101C30.476,20.437 27.508,17.441 23.816,17.441L23.816,20.441ZM27.476,24.091C27.462,26.103 25.887,27.706 23.953,27.762L24.04,30.761C27.626,30.657 30.451,27.7 30.476,24.112L27.476,24.091Z" fill="#000000"/>
<path d="M18.179,35.562L19.005,36.814L19.008,36.812L18.179,35.562ZM18.179,42.402L19.013,41.155L19.011,41.154L18.179,42.402ZM29.835,42.246C30.524,41.786 30.709,40.854 30.248,40.165C29.788,39.477 28.856,39.292 28.168,39.752L29.835,42.246ZM27.636,36.453C28.44,36.654 29.254,36.165 29.455,35.361C29.656,34.558 29.168,33.743 28.364,33.542L27.636,36.453ZM17.353,34.31C15.863,35.292 14.916,36.965 14.807,38.723C14.695,40.541 15.483,42.407 17.347,43.65L19.011,41.154C18.055,40.516 17.754,39.681 17.802,38.908C17.853,38.075 18.316,37.268 19.005,36.814L17.353,34.31ZM17.345,43.648C19.364,44.998 21.699,45.178 23.862,44.781C26.017,44.384 28.112,43.399 29.835,42.246L28.168,39.752C26.691,40.74 24.975,41.525 23.319,41.83C21.67,42.134 20.195,41.945 19.013,41.155L17.345,43.648ZM28.364,33.542C26.395,33.05 24.56,32.608 22.788,32.609C20.935,32.611 19.192,33.091 17.351,34.311L19.008,36.812C20.366,35.912 21.534,35.61 22.791,35.609C24.13,35.608 25.605,35.945 27.636,36.453L28.364,33.542Z" fill="#000000"/>
<path d="M43.76,37.86L42.311,37.474C42.306,37.492 42.301,37.512 42.297,37.531L43.76,37.86ZM42.84,40.12L41.564,39.332L41.551,39.353L42.84,40.12ZM30.68,41.94L31.692,40.833C31.682,40.824 31.672,40.815 31.662,40.806L30.68,41.94ZM29.16,40.12L30.453,39.359C30.448,39.35 30.442,39.342 30.437,39.333L29.16,40.12ZM30.26,30.42L29.185,29.374L29.185,29.374L30.26,30.42ZM41.94,30.66L40.813,31.65L40.826,31.664L41.94,30.66ZM42.5,36C42.5,36.514 42.436,37.003 42.311,37.474L45.209,38.246C45.404,37.517 45.5,36.766 45.5,36L42.5,36ZM42.297,37.531C42.153,38.168 41.896,38.793 41.564,39.332L44.116,40.908C44.624,40.087 45.007,39.152 45.223,38.189L42.297,37.531ZM41.551,39.353C40.431,41.235 38.372,42.5 36,42.5L36,45.5C39.468,45.5 42.489,43.645 44.129,40.887L41.551,39.353ZM36,42.5C34.328,42.5 32.826,41.869 31.692,40.833L29.668,43.047C31.334,44.571 33.552,45.5 36,45.5L36,42.5ZM31.662,40.806C31.182,40.39 30.768,39.895 30.453,39.359L27.867,40.881C28.352,41.705 28.978,42.45 29.698,43.073L31.662,40.806ZM30.437,39.333C29.841,38.367 29.5,37.219 29.5,36L26.5,36C26.5,37.781 26.999,39.473 27.883,40.907L30.437,39.333ZM29.5,36C29.5,34.243 30.199,32.635 31.336,31.466L29.185,29.374C27.521,31.085 26.5,33.437 26.5,36L29.5,36ZM31.335,31.466C32.522,30.247 34.178,29.5 36,29.5L36,26.5C33.342,26.5 30.918,27.593 29.185,29.374L31.335,31.466ZM36,29.5C37.923,29.5 39.654,30.33 40.813,31.65L43.067,29.67C41.346,27.71 38.797,26.5 36,26.5L36,29.5ZM40.826,31.664C41.869,32.822 42.5,34.348 42.5,36L45.5,36C45.5,33.572 44.571,31.338 43.054,29.656L40.826,31.664Z" fill="#000000"/>
<line x1="33.02" y1="34.461" x2="38.979" y2="34.461" stroke="#000000" stroke-width="1.5" stroke-miterlimit="10" stroke-linecap="round" stroke-linejoin="round"/>
<line x1="34.5" y1="33.039" x2="34.5" y2="39.019" stroke="#000000" stroke-width="1.5" stroke-miterlimit="10" stroke-linecap="round" stroke-linejoin="round"/>
</svg>
