<svg width="26" height="30" viewBox="0 0 26 30" fill="none" xmlns="http://www.w3.org/2000/svg" xmlns:xlink="http://www.w3.org/1999/xlink">
<path d="M20.749,-0.625C20.036,-0.625 19.332,-0.469 18.685,-0.167C18.039,0.135 17.467,0.574 17.009,1.121C16.551,1.668 16.219,2.309 16.036,2.999C15.853,3.688 15.823,4.409 15.949,5.111L8.854,10.079C8.819,10.104 8.785,10.13 8.752,10.159C8.033,9.596 7.169,9.247 6.261,9.151C5.352,9.055 4.435,9.217 3.614,9.617C2.792,10.018 2.1,10.641 1.616,11.416C1.132,12.19 0.875,13.086 0.875,13.999C0.875,14.913 1.132,15.808 1.616,16.583C2.1,17.358 2.792,17.981 3.614,18.381C4.435,18.782 5.352,18.943 6.261,18.847C7.169,18.752 8.033,18.403 8.752,17.84C8.785,17.869 8.819,17.896 8.854,17.921L15.949,22.889C15.739,24.063 15.966,25.274 16.588,26.292C17.21,27.31 18.183,28.064 19.324,28.412C20.465,28.761 21.694,28.679 22.779,28.182C23.863,27.685 24.728,26.807 25.209,25.716C25.69,24.624 25.754,23.394 25.389,22.258C25.024,21.123 24.256,20.16 23.229,19.553C22.202,18.946 20.988,18.737 19.817,18.964C18.646,19.192 17.599,19.841 16.875,20.789L10.156,16.087C10.456,15.453 10.624,14.747 10.624,14C10.624,13.253 10.456,12.545 10.156,11.914L16.876,7.21C17.38,7.868 18.043,8.388 18.803,8.719C19.563,9.05 20.395,9.182 21.221,9.102C22.046,9.022 22.837,8.733 23.52,8.262C24.202,7.791 24.753,7.154 25.12,6.41C25.488,5.667 25.66,4.842 25.62,4.014C25.579,3.186 25.329,2.382 24.891,1.677C24.454,0.973 23.844,0.392 23.119,-0.011C22.394,-0.414 21.579,-0.625 20.749,-0.625ZM18.124,4.25C18.124,3.554 18.401,2.886 18.893,2.394C19.385,1.902 20.053,1.625 20.749,1.625C21.446,1.625 22.113,1.902 22.606,2.394C23.098,2.886 23.374,3.554 23.374,4.25C23.374,4.946 23.098,5.614 22.606,6.106C22.113,6.598 21.446,6.875 20.749,6.875C20.053,6.875 19.385,6.598 18.893,6.106C18.401,5.614 18.124,4.946 18.124,4.25ZM5.749,11.375C5.053,11.375 4.385,11.652 3.893,12.144C3.401,12.636 3.124,13.304 3.124,14C3.124,14.696 3.401,15.364 3.893,15.856C4.385,16.348 5.053,16.625 5.749,16.625C6.446,16.625 7.113,16.348 7.606,15.856C8.098,15.364 8.374,14.696 8.374,14C8.374,13.304 8.098,12.636 7.606,12.144C7.113,11.652 6.446,11.375 5.749,11.375ZM20.749,21.125C20.053,21.125 19.385,21.402 18.893,21.894C18.401,22.386 18.124,23.054 18.124,23.75C18.124,24.446 18.401,25.114 18.893,25.606C19.385,26.098 20.053,26.375 20.749,26.375C21.446,26.375 22.113,26.098 22.606,25.606C23.098,25.114 23.374,24.446 23.374,23.75C23.374,23.054 23.098,22.386 22.606,21.894C22.113,21.402 21.446,21.125 20.749,21.125Z" clip-rule="evenodd" fill-rule="evenodd" fill="#FFFFFF"/>
</svg>
