<svg width="32" height="24" viewBox="0 0 32 24" fill="none" xmlns="http://www.w3.org/2000/svg" xmlns:xlink="http://www.w3.org/1999/xlink">
<path d="M16.222,22.057C16.015,22.057 15.532,21.673 14.775,20.906C14.018,20.138 13.639,19.65 13.639,19.441C13.639,19.107 13.964,18.825 14.612,18.595C15.26,18.366 15.797,18.251 16.222,18.251C16.647,18.251 17.184,18.366 17.832,18.595C18.481,18.825 18.805,19.107 18.805,19.441C18.805,19.65 18.426,20.138 17.669,20.906C16.912,21.673 16.43,22.057 16.222,22.057ZM20.423,17.812C20.402,17.812 20.195,17.682 19.8,17.42C19.406,17.159 18.88,16.898 18.221,16.637C17.563,16.376 16.896,16.246 16.222,16.246C15.548,16.246 14.881,16.376 14.223,16.637C13.564,16.898 13.04,17.159 12.651,17.42C12.263,17.682 12.052,17.812 12.021,17.812C11.835,17.812 11.35,17.42 10.567,16.637C9.784,15.854 9.392,15.368 9.392,15.18C9.392,15.045 9.444,14.925 9.548,14.82C10.357,14.016 11.373,13.384 12.597,12.925C13.821,12.465 15.029,12.236 16.222,12.236C17.415,12.236 18.623,12.465 19.847,12.925C21.071,13.384 22.088,14.016 22.897,14.82C23,14.925 23.052,15.045 23.052,15.18C23.052,15.368 22.661,15.854 21.877,16.637C21.094,17.42 20.61,17.812 20.423,17.812ZM24.67,13.551C24.556,13.551 24.437,13.51 24.312,13.426C22.902,12.33 21.595,11.523 20.392,11.006C19.189,10.489 17.799,10.231 16.222,10.231C15.34,10.231 14.456,10.345 13.569,10.575C12.683,10.805 11.91,11.082 11.251,11.405C10.593,11.729 10.004,12.053 9.485,12.377C8.967,12.7 8.557,12.977 8.256,13.207C7.955,13.437 7.795,13.551 7.774,13.551C7.598,13.551 7.12,13.16 6.343,12.377C5.565,11.593 5.176,11.108 5.176,10.92C5.176,10.795 5.228,10.68 5.331,10.575C6.7,9.197 8.36,8.126 10.31,7.364C12.26,6.602 14.231,6.221 16.222,6.221C18.214,6.221 20.184,6.602 22.134,7.364C24.084,8.126 25.744,9.197 27.113,10.575C27.217,10.68 27.268,10.795 27.268,10.92C27.268,11.108 26.879,11.593 26.102,12.377C25.324,13.16 24.847,13.551 24.67,13.551ZM28.886,9.306C28.772,9.306 28.658,9.259 28.544,9.165C26.688,7.526 24.761,6.291 22.764,5.461C20.768,4.631 18.587,4.216 16.222,4.216C13.857,4.216 11.676,4.631 9.68,5.461C7.683,6.291 5.757,7.526 3.9,9.165C3.786,9.259 3.672,9.306 3.558,9.306C3.381,9.306 2.902,8.915 2.118,8.132C1.335,7.348 0.944,6.863 0.944,6.675C0.944,6.539 0.996,6.419 1.099,6.315C3.039,4.372 5.347,2.868 8.023,1.803C10.699,0.738 13.432,0.206 16.222,0.206C19.012,0.206 21.745,0.738 24.421,1.803C27.097,2.868 29.405,4.372 31.345,6.315C31.448,6.419 31.5,6.539 31.5,6.675C31.5,6.863 31.109,7.348 30.326,8.132C29.543,8.915 29.063,9.306 28.886,9.306Z" fill="#000000"/>
</svg>
